<svg width="28" height="28" viewBox="0 0 28 28" fill="none" xmlns="http://www.w3.org/2000/svg">
<path d="M14.1888 27.8826C21.6317 27.8826 27.6655 21.8489 27.6655 14.4059C27.6655 6.96292 21.6317 0.929199 14.1888 0.929199C6.74579 0.929199 0.712067 6.96292 0.712067 14.4059C0.712067 21.8489 6.74579 27.8826 14.1888 27.8826Z" fill="black"/>
<path d="M13.5656 14.3112H11.9562C11.9562 15.41 11.6777 16.6483 11.1513 17.4841C9.94413 16.7721 8.96913 15.7042 8.16427 14.7138C9.91324 14.1877 12.0334 13.2899 12.0334 11.0611C12.0334 9.35849 10.8262 8.04297 8.72127 8.04297C6.46164 8.04297 5.26992 9.62155 5.26992 11.293C5.26992 12.1908 5.51753 13.1347 6.04364 14.1563C4.7747 14.8528 4.15567 15.9207 4.15567 17.1124C4.15567 19.1399 6.04389 20.4245 8.31897 20.4245C9.37144 20.4245 10.4394 20.0068 11.3835 19.2019C12.5752 19.883 13.9062 20.2235 15.2526 20.2235V18.8771C14.4632 18.8462 13.1631 18.614 12.4511 18.1651C13.1785 17.0354 13.5345 15.627 13.5654 14.3115L13.5656 14.3112ZM8.68042 9.38963C9.79143 9.39237 10.4394 10.2421 10.4394 11.0609C10.4394 12.2835 8.96913 13.0109 7.45233 13.5836C7.05003 12.7787 6.86419 12.0668 6.86419 11.3394C6.86419 10.398 7.47998 9.39511 8.68042 9.38938V9.38963ZM8.31897 19.0781C6.97255 19.0781 5.7497 18.4745 5.7497 17.1126C5.7497 16.54 5.95097 15.7662 6.74014 15.271C7.60678 16.4627 8.76761 17.5615 10.0986 18.4593C9.6188 18.8462 9.06155 19.0783 8.31872 19.0783L8.31897 19.0781Z" fill="#F3F4F4"/>
<path d="M19.5975 8.04297C18.545 8.04297 17.4771 8.46072 16.533 9.26558C15.3413 8.58452 14.0103 8.244 12.6639 8.244V9.59041C13.4533 9.6213 14.7534 9.85347 15.4651 10.3024C14.7377 11.432 14.3817 12.8405 14.3508 14.156H15.9605C15.9605 13.0572 16.239 11.8189 16.7654 10.9832C17.9726 11.6951 18.9475 12.763 19.7524 13.7535C18.0034 14.2796 15.8833 15.1773 15.8833 17.4061C15.8833 19.1085 17.0905 20.424 19.1954 20.424C21.455 20.424 22.6468 18.8454 22.6468 17.1739C22.6468 16.2762 22.3992 15.3323 21.873 14.3107C23.1422 13.6142 23.7613 12.5463 23.7613 11.3546C23.7608 9.32761 21.8725 8.04297 19.5975 8.04297ZM19.236 19.0778C18.125 19.0751 17.4771 18.2254 17.4771 17.4066C17.4771 16.184 18.9473 15.4566 20.4641 14.8839C20.8664 15.6888 21.0522 16.4007 21.0522 17.1281C21.0522 18.0695 20.4365 19.0724 19.236 19.0781V19.0778ZM21.176 13.1967C20.3094 12.005 19.1486 10.9062 17.8176 10.0084C18.2974 9.62155 18.8546 9.38938 19.5975 9.38938C20.9439 9.38938 22.1667 9.99297 22.1667 11.3548C22.1667 11.9275 21.9655 12.7012 21.1763 13.1965L21.176 13.1967Z" fill="#F3F4F4"/>
</svg>
